<svg xmlns="http://www.w3.org/2000/svg" style="display:none">
<symbol id="generic" viewBox="0 0 64 64" fill="none" stroke="currentColor" stroke-width="3" stroke-linecap="round" stroke-linejoin="round">
      <rect x="20" y="14" width="24" height="40" rx="5"/>
      <path d="M25 14v-4h14v4M25 31h14M32 24v14M25 31l7-7 7 7"/>
    </symbol>
<symbol id="sponge" viewBox="0 0 64 64" fill="none" stroke="currentColor" stroke-width="3" stroke-linecap="round" stroke-linejoin="round">
      <rect x="10" y="19" width="44" height="28" rx="8"/>
      <path d="M16 28c4-4 8 4 12 0s8 4 12 0 8 4 10 1M17 38h4m5 0h4m5 0h4m5 0h3"/>
    </symbol>
<symbol id="loofah" viewBox="0 0 64 64" fill="none" stroke="currentColor" stroke-width="3" stroke-linecap="round" stroke-linejoin="round">
      <ellipse cx="32" cy="32" rx="20" ry="14"/>
      <path d="M18 32c6-10 22-10 28 0-6 10-22 10-28 0ZM25 20c-5 8-5 16 0 24M39 20c5 8 5 16 0 24"/>
    </symbol>
<symbol id="cloth" viewBox="0 0 64 64" fill="none" stroke="currentColor" stroke-width="3" stroke-linecap="round" stroke-linejoin="round">
      <path d="M13 18h38l-5 30H18Z"/>
      <path d="M17 24c7 5 12-5 19 0s10-3 13 0M20 34h24M22 42h18"/>
    </symbol>
<symbol id="mop" viewBox="0 0 64 64" fill="none" stroke="currentColor" stroke-width="3" stroke-linecap="round" stroke-linejoin="round">
      <path d="M35 8 27 39"/>
      <path d="M20 38h17l9 15H12Z"/>
      <path d="m18 51 4-11m4 12 3-13m4 13 1-13m5 13-2-12"/>
    </symbol>
<symbol id="dustpan" viewBox="0 0 64 64" fill="none" stroke="currentColor" stroke-width="3" stroke-linecap="round" stroke-linejoin="round">
      <path d="M11 42h35l7 12H8Z"/>
      <path d="M36 42 49 9M46 11l5-2"/>
      <path d="M16 48h29"/>
    </symbol>
<symbol id="broom" viewBox="0 0 64 64" fill="none" stroke="currentColor" stroke-width="3" stroke-linecap="round" stroke-linejoin="round">
      <path d="M37 7 28 39"/>
      <path d="M20 38h16l9 17H11Z"/>
      <path d="m17 53 4-13m5 14 3-15m5 15 1-15m6 14-4-13"/>
    </symbol>
<symbol id="garden-broom" viewBox="0 0 64 64" fill="none" stroke="currentColor" stroke-width="3" stroke-linecap="round" stroke-linejoin="round">
      <path d="M32 7v33"/>
      <path d="M15 19 32 42 49 19M20 17l12 25m-5-27 5 27m5-27-5 27m12-25L32 42"/>
      <path d="M17 48h30"/>
    </symbol>
<symbol id="handle" viewBox="0 0 64 64" fill="none" stroke="currentColor" stroke-width="3" stroke-linecap="round" stroke-linejoin="round">
      <path d="M39 7 25 55"/>
      <circle cx="39" cy="7" r="3"/>
      <path d="m23 55 5-1"/>
    </symbol>
<symbol id="plunger" viewBox="0 0 64 64" fill="none" stroke="currentColor" stroke-width="3" stroke-linecap="round" stroke-linejoin="round">
      <path d="M34 8 30 40"/>
      <path d="M18 49c1-8 7-12 14-12s13 4 14 12Z"/>
      <path d="M16 49h32"/>
    </symbol>
<symbol id="brush" viewBox="0 0 64 64" fill="none" stroke="currentColor" stroke-width="3" stroke-linecap="round" stroke-linejoin="round">
      <rect x="10" y="21" width="44" height="17" rx="8"/>
      <path d="M17 38v10m6-10v13m6-13v10m6-10v13m6-13v10m6-10v13"/>
      <path d="M20 21c0-6 5-10 12-10s12 4 12 10"/>
    </symbol>
<symbol id="trigger" viewBox="0 0 64 64" fill="none" stroke="currentColor" stroke-width="3" stroke-linecap="round" stroke-linejoin="round">
      <path d="M21 22h20v8H25l-4 24H11l5-32Z"/>
      <path d="M41 24h11M43 28h8M28 30l9 11"/>
    </symbol>
<symbol id="clothespins" viewBox="0 0 64 64" fill="none" stroke="currentColor" stroke-width="3" stroke-linecap="round" stroke-linejoin="round">
      <path d="m19 12 8 40M29 12l-8 40M35 12l8 40M45 12l-8 40"/>
      <path d="M17 25h14M33 25h14"/>
      <circle cx="24" cy="25" r="3"/><circle cx="40" cy="25" r="3"/>
    </symbol>
<symbol id="gloves" viewBox="0 0 64 64" fill="none" stroke="currentColor" stroke-width="3" stroke-linecap="round" stroke-linejoin="round">
      <path d="M16 27V13c0-3 5-3 5 0v10-14c0-3 5-3 5 0v14-16c0-3 5-3 5 0v16-13c0-3 5-3 5 0v19l6-7c3-3 8 1 5 5L36 46v10H20V46c-5-5-8-11-8-16 0-4 4-5 4-3Z"/>
    </symbol>
<symbol id="bucket-mop" viewBox="0 0 64 64" fill="none" stroke="currentColor" stroke-width="3" stroke-linecap="round" stroke-linejoin="round">
      <path d="M12 28h27l-3 25H15Z"/>
      <path d="M15 29c0-10 20-10 22 0"/>
      <path d="M49 8 38 39"/>
      <path d="M35 39h11l6 14H29Z"/>
    </symbol>
<symbol id="powder-box" viewBox="0 0 64 64" fill="none" stroke="currentColor" stroke-width="3" stroke-linecap="round" stroke-linejoin="round">
      <path d="M15 16h34l-4 39H19Z"/>
      <path d="M18 23h28M25 16l3-7h9l3 7"/>
      <path d="M25 35c5-6 9 6 14 0M25 42h14"/>
    </symbol>
<symbol id="laundry-bottle" viewBox="0 0 64 64" fill="none" stroke="currentColor" stroke-width="3" stroke-linecap="round" stroke-linejoin="round">
      <path d="M25 9h14v8l5 6v31H20V23l5-6Z"/>
      <path d="M25 29h14v15H25Z"/>
      <path d="M29 9V5h6v4"/>
    </symbol>
<symbol id="softener" viewBox="0 0 64 64" fill="none" stroke="currentColor" stroke-width="3" stroke-linecap="round" stroke-linejoin="round">
      <path d="M25 9h14v9l5 6v30H20V24l5-6Z"/>
      <path d="M25 30c5-7 9 7 14 0v14H25Z"/>
      <path d="M29 9V5h6v4"/>
    </symbol>
<symbol id="fabric-spray" viewBox="0 0 64 64" fill="none" stroke="currentColor" stroke-width="3" stroke-linecap="round" stroke-linejoin="round">
      <path d="M19 24h24v30H19Z"/>
      <path d="M25 24v-8h14v8M38 16h12v5H39"/>
      <path d="M27 36c3-6 8-6 11 0-3 6-8 6-11 0Z"/>
    </symbol>
<symbol id="hand-soap" viewBox="0 0 64 64" fill="none" stroke="currentColor" stroke-width="3" stroke-linecap="round" stroke-linejoin="round">
      <path d="M20 23h24v31H20Z"/>
      <path d="M26 23v-9h13M31 14V9h12v5"/>
      <path d="M26 36c4-5 8 5 12 0v10H26Z"/>
    </symbol>
<symbol id="disinfectant" viewBox="0 0 64 64" fill="none" stroke="currentColor" stroke-width="3" stroke-linecap="round" stroke-linejoin="round">
      <path d="M23 9h18v8l5 7v30H18V24l5-7Z"/>
      <path d="M27 31h10v17H27Z"/>
      <path d="M32 34v11M27 39h10"/>
    </symbol>
<symbol id="dish-soap" viewBox="0 0 64 64" fill="none" stroke="currentColor" stroke-width="3" stroke-linecap="round" stroke-linejoin="round">
      <path d="M24 8h16v10l5 7v29H19V25l5-7Z"/>
      <path d="M24 30h16v17H24Z"/>
      <circle cx="29" cy="36" r="2"/><circle cx="36" cy="40" r="3"/>
    </symbol>
<symbol id="degreaser" viewBox="0 0 64 64" fill="none" stroke="currentColor" stroke-width="3" stroke-linecap="round" stroke-linejoin="round">
      <path d="M20 24h24v30H20Z"/>
      <path d="M26 24v-8h13v8M39 16h12v5H40"/>
      <path d="m28 45 8-16m-1 15 5-10"/>
    </symbol>
<symbol id="floor-cleaner" viewBox="0 0 64 64" fill="none" stroke="currentColor" stroke-width="3" stroke-linecap="round" stroke-linejoin="round">
      <path d="M23 8h18v10l5 7v29H18V25l5-7Z"/>
      <path d="M24 32h16v15H24Z"/>
      <path d="M27 41c4-8 7 4 11-4"/>
    </symbol>
<symbol id="bleach" viewBox="0 0 64 64" fill="none" stroke="currentColor" stroke-width="3" stroke-linecap="round" stroke-linejoin="round">
      <path d="M23 8h18v10l5 7v29H18V25l5-7Z"/>
      <path d="M26 31h12v17H26Z"/>
      <path d="M32 34c5 6 5 10 0 11-5-1-5-5 0-11Z"/>
    </symbol>
<symbol id="glass-cleaner" viewBox="0 0 64 64" fill="none" stroke="currentColor" stroke-width="3" stroke-linecap="round" stroke-linejoin="round">
      <path d="M20 24h24v30H20Z"/>
      <path d="M26 24v-8h13v8M39 16h12v5H40"/>
      <path d="M25 32h14v14H25Z"/>
      <path d="m27 44 10-10M27 37l4-4"/>
    </symbol>
<symbol id="cream-cleaner" viewBox="0 0 64 64" fill="none" stroke="currentColor" stroke-width="3" stroke-linecap="round" stroke-linejoin="round">
      <path d="M23 8h18v10l5 7v29H18V25l5-7Z"/>
      <path d="M24 31h16v16H24Z"/>
      <path d="M28 42c1-7 7-7 8 0"/>
    </symbol>
<symbol id="trash-bags" viewBox="0 0 64 64" fill="none" stroke="currentColor" stroke-width="3" stroke-linecap="round" stroke-linejoin="round">
      <path d="M18 17h28l-3 38H21Z"/>
      <path d="m21 17 4-8m18 8-4-8M25 9h14"/>
      <path d="M25 29h14M25 38h14"/>
    </symbol>
<symbol id="bucket" viewBox="0 0 64 64" fill="none" stroke="currentColor" stroke-width="3" stroke-linecap="round" stroke-linejoin="round">
      <path d="M12 24h40l-4 31H16Z"/>
      <path d="M17 25c0-17 30-17 30 0"/>
      <path d="M20 34h24"/>
    </symbol>
<symbol id="toilet-brush" viewBox="0 0 64 64" fill="none" stroke="currentColor" stroke-width="3" stroke-linecap="round" stroke-linejoin="round">
      <path d="M32 7v29"/>
      <ellipse cx="32" cy="40" rx="9" ry="12"/>
      <path d="M19 55h26l-3-10H22Z"/>
      <path d="M26 34v12m4-15v17m4-17v17m4-14v12"/>
    </symbol>
<symbol id="trash-bin" viewBox="0 0 64 64" fill="none" stroke="currentColor" stroke-width="3" stroke-linecap="round" stroke-linejoin="round">
      <path d="M16 18h32l-3 37H19Z"/>
      <path d="M13 18h38M23 12h18v6"/>
      <path d="M25 27v19m7-19v19m7-19v19"/>
    </symbol>
<symbol id="laundry-basket" viewBox="0 0 64 64" fill="none" stroke="currentColor" stroke-width="3" stroke-linecap="round" stroke-linejoin="round">
      <path d="M12 20h40l-5 35H17Z"/>
      <path d="M20 20c0-9 24-9 24 0"/>
      <path d="M21 30h22M19 39h26M18 48h28"/>
    </symbol>
<symbol id="clothesline" viewBox="0 0 64 64" fill="none" stroke="currentColor" stroke-width="3" stroke-linecap="round" stroke-linejoin="round">
      <path d="M7 15c14 10 36 10 50 0"/>
      <path d="M18 20v13m10-10v13m10-13v13m9-16v13"/>
      <path d="M14 33h8v17h-8ZM24 36h8v14h-8ZM34 36h8v14h-8ZM43 33h8v17h-8Z"/>
    </symbol>
<symbol id="fly-swatter" viewBox="0 0 64 64" fill="none" stroke="currentColor" stroke-width="3" stroke-linecap="round" stroke-linejoin="round">
      <path d="M36 34 22 56"/>
      <rect x="22" y="8" width="25" height="27" rx="5"/>
      <path d="M27 14h15M27 20h15M27 26h15M30 10v23M37 10v23"/>
    </symbol>
<symbol id="soap-dispenser" viewBox="0 0 64 64" fill="none" stroke="currentColor" stroke-width="3" stroke-linecap="round" stroke-linejoin="round">
      <path d="M20 23h24v31H20Z"/>
      <path d="M26 23v-9h14M31 14V9h16v5"/>
      <path d="M27 36h10v11H27Z"/>
    </symbol>
<symbol id="funnel" viewBox="0 0 64 64" fill="none" stroke="currentColor" stroke-width="3" stroke-linecap="round" stroke-linejoin="round">
      <path d="M10 11h44L37 34v20H27V34Z"/>
      <path d="M18 17h28"/>
    </symbol>
<symbol id="squeegee" viewBox="0 0 64 64" fill="none" stroke="currentColor" stroke-width="3" stroke-linecap="round" stroke-linejoin="round">
      <path d="M12 14h40v10H12Z"/>
      <path d="M32 24v32"/>
      <path d="m28 56 8-1"/>
    </symbol>
<symbol id="basin" viewBox="0 0 64 64" fill="none" stroke="currentColor" stroke-width="3" stroke-linecap="round" stroke-linejoin="round">
      <path d="M8 25h48l-7 25H15Z"/>
      <path d="M15 25c3 8 31 8 34 0M18 40h28"/>
    </symbol>
<symbol id="pot" viewBox="0 0 64 64" fill="none" stroke="currentColor" stroke-width="3" stroke-linecap="round" stroke-linejoin="round">
      <path d="M13 25h38l-5 29H18Z"/>
      <path d="M10 18h44v8H10Z"/>
      <path d="M32 18V8m0 5c-8-8-14-2-14 3 7 2 11 0 14-3Zm0 0c8-8 14-2 14 3-7 2-11 0-14-3Z"/>
    </symbol>
<symbol id="toilet-paper" viewBox="0 0 64 64" fill="none" stroke="currentColor" stroke-width="3" stroke-linecap="round" stroke-linejoin="round">
      <ellipse cx="23" cy="31" rx="13" ry="20"/>
      <path d="M23 11h18c8 0 13 9 13 20s-5 20-13 20H23"/>
      <ellipse cx="23" cy="31" rx="5" ry="8"/>
      <path d="M41 51v8l8-4 5 4V31"/>
    </symbol>
<symbol id="paper-towel" viewBox="0 0 64 64" fill="none" stroke="currentColor" stroke-width="3" stroke-linecap="round" stroke-linejoin="round">
      <path d="M18 10h28v44H18Z"/>
      <path d="M24 10v44M40 10v44M18 25h28M18 39h28"/>
      <circle cx="32" cy="32" r="6"/>
    </symbol>
<symbol id="napkin" viewBox="0 0 64 64" fill="none" stroke="currentColor" stroke-width="3" stroke-linecap="round" stroke-linejoin="round">
      <path d="M12 14h40v40H12Z"/>
      <path d="m12 14 40 40M24 14v12h12M40 54V42H28"/>
    </symbol>
<symbol id="tissues" viewBox="0 0 64 64" fill="none" stroke="currentColor" stroke-width="3" stroke-linecap="round" stroke-linejoin="round">
      <path d="M11 27h42l-4 27H15Z"/>
      <path d="M20 27c2-12 8-18 12-18s10 6 12 18"/>
      <path d="M24 31h16"/>
    </symbol>
<symbol id="foil" viewBox="0 0 64 64" fill="none" stroke="currentColor" stroke-width="3" stroke-linecap="round" stroke-linejoin="round">
      <path d="M10 21h35v27H10Z"/>
      <ellipse cx="45" cy="34.5" rx="9" ry="13.5"/>
      <ellipse cx="45" cy="34.5" rx="4" ry="7"/>
      <path d="M17 28h18M17 35h13M17 42h16"/>
    </symbol>
<symbol id="baking-paper" viewBox="0 0 64 64" fill="none" stroke="currentColor" stroke-width="3" stroke-linecap="round" stroke-linejoin="round">
      <path d="M10 21h35v27H10Z"/>
      <ellipse cx="45" cy="34.5" rx="9" ry="13.5"/>
      <path d="M17 29c5-4 10 4 16 0M17 38c5-4 10 4 16 0"/>
    </symbol>
<symbol id="cling-film" viewBox="0 0 64 64" fill="none" stroke="currentColor" stroke-width="3" stroke-linecap="round" stroke-linejoin="round">
      <path d="M9 22h37v26H9Z"/>
      <ellipse cx="46" cy="35" rx="9" ry="13"/>
      <path d="M16 28h22v14H16Z"/>
      <path d="m18 40 18-10M18 33l7-4"/>
    </symbol>
<symbol id="insect-spray" viewBox="0 0 64 64" fill="none" stroke="currentColor" stroke-width="3" stroke-linecap="round" stroke-linejoin="round">
      <path d="M21 20h22v34H21Z"/>
      <path d="M25 20v-7h15v7M39 13h12v5H40"/>
      <path d="m27 31 10 12m0-12L27 43M45 27h10m-9-5 8-4m-8 14 8 4"/>
    </symbol>
<symbol id="mosquito-coil" viewBox="0 0 64 64" fill="none" stroke="currentColor" stroke-width="3" stroke-linecap="round" stroke-linejoin="round">
      <path d="M43 32c0-8-6-14-14-14S15 24 15 32s6 14 14 14c6 0 10-4 10-9 0-4-3-8-8-8s-8 3-8 7 3 6 6 6c2 0 4-2 4-4"/>
      <path d="M43 32h10M48 27l5 5-5 5"/>
    </symbol>
<symbol id="repellent" viewBox="0 0 64 64" fill="none" stroke="currentColor" stroke-width="3" stroke-linecap="round" stroke-linejoin="round">
      <path d="M22 14h20l4 40H18Z"/>
      <path d="M25 14V8h14v6"/>
      <path d="M25 29h14v17H25Z"/>
      <path d="M29 33c4 3 4 7 0 9m6-9c-4 3-4 7 0 9"/>
    </symbol>
<symbol id="tablets" viewBox="0 0 64 64" fill="none" stroke="currentColor" stroke-width="3" stroke-linecap="round" stroke-linejoin="round">
      <rect x="10" y="15" width="44" height="34" rx="5"/>
      <circle cx="22" cy="27" r="6"/><circle cx="42" cy="27" r="6"/>
      <circle cx="22" cy="41" r="6"/><circle cx="42" cy="41" r="6"/>
    </symbol>
<symbol id="air-freshener" viewBox="0 0 64 64" fill="none" stroke="currentColor" stroke-width="3" stroke-linecap="round" stroke-linejoin="round">
      <path d="M21 20h22v34H21Z"/>
      <path d="M25 20v-7h15v7M39 13h12v5H40"/>
      <path d="M28 42c-4-7 4-12 4-12s8 5 4 12c-2 4-6 4-8 0Z"/>
    </symbol>
<symbol id="sanitizer" viewBox="0 0 64 64" fill="none" stroke="currentColor" stroke-width="3" stroke-linecap="round" stroke-linejoin="round">
      <path d="M20 23h24v31H20Z"/>
      <path d="M26 23v-9h14M31 14V9h16v5"/>
      <path d="M32 30c6 8 6 14 0 16-6-2-6-8 0-16Z"/>
    </symbol>
<symbol id="toilet-block" viewBox="0 0 64 64" fill="none" stroke="currentColor" stroke-width="3" stroke-linecap="round" stroke-linejoin="round">
      <path d="M18 16h28l5 12-8 26H21l-8-26Z"/>
      <path d="M18 28h33M25 35h14M27 43h10"/>
    </symbol>
<symbol id="furniture-polish" viewBox="0 0 64 64" fill="none" stroke="currentColor" stroke-width="3" stroke-linecap="round" stroke-linejoin="round">
      <path d="M21 20h22v34H21Z"/>
      <path d="M25 20v-7h15v7M39 13h12v5H40"/>
      <path d="M27 44h10M32 31v9m-5-4h10"/>
    </symbol>
<symbol id="sunscreen" viewBox="0 0 64 64" fill="none" stroke="currentColor" stroke-width="3" stroke-linecap="round" stroke-linejoin="round">
      <path d="M22 14h20l4 40H18Z"/>
      <path d="M25 14V8h14v6"/>
      <circle cx="32" cy="35" r="7"/>
      <path d="M32 24v4m0 14v4m-11-11h4m14 0h4m-18-8 3 3m8 8 3 3m0-14-3 3m-8 8-3 3"/>
    </symbol>
<symbol id="stain-remover" viewBox="0 0 64 64" fill="none" stroke="currentColor" stroke-width="3" stroke-linecap="round" stroke-linejoin="round">
      <rect x="14" y="18" width="36" height="28" rx="7"/>
      <path d="M20 46v8h24v-8"/>
      <path d="m25 27 14 10m0-10L25 37"/>
    </symbol>
<symbol id="hanger" viewBox="0 0 64 64" fill="none" stroke="currentColor" stroke-width="3" stroke-linecap="round" stroke-linejoin="round">
      <path d="M32 22c-6 0-8-8-2-11 6-3 10 5 5 9l-3 2"/>
      <path d="m31 22-21 24h44Z"/>
      <path d="M21 46v7h22v-7"/>
    </symbol>
<symbol id="door-seal" viewBox="0 0 64 64" fill="none" stroke="currentColor" stroke-width="3" stroke-linecap="round" stroke-linejoin="round">
      <path d="M13 9h28v45H13Z"/>
      <path d="M41 43h13v11H41Z"/>
      <path d="M17 49h20M46 46v5M50 46v5"/>
      <circle cx="34" cy="31" r="2"/>
    </symbol>
<symbol id="bath-mat" viewBox="0 0 64 64" fill="none" stroke="currentColor" stroke-width="3" stroke-linecap="round" stroke-linejoin="round">
      <rect x="10" y="15" width="44" height="34" rx="8"/>
      <path d="M17 24c5-5 10 5 15 0s10 5 15 0M17 34c5-5 10 5 15 0s10 5 15 0M17 44c5-5 10 5 15 0s10 5 15 0"/>
    </symbol>
<symbol id="baking-soda" viewBox="0 0 64 64" fill="none" stroke="currentColor" stroke-width="3" stroke-linecap="round" stroke-linejoin="round">
      <path d="M15 16h34l-4 39H19Z"/>
      <path d="M18 23h28M25 16l3-7h9l3 7"/>
      <path d="M27 34h10M32 29v10M25 45h14"/>
    </symbol>
<symbol id="wax" viewBox="0 0 64 64" fill="none" stroke="currentColor" stroke-width="3" stroke-linecap="round" stroke-linejoin="round">
      <path d="M13 25h38l-4 29H17Z"/>
      <path d="M10 18h44v8H10Z"/>
      <path d="M24 37c4-8 12-8 16 0-4 8-12 8-16 0Z"/>
    </symbol>
</svg>